<svg xmlns="http://www.w3.org/2000/svg" xmlns:xlink="http://www.w3.org/1999/xlink" viewBox="0 0 362 182.81"><defs><style>.cls-1{fill:url(#linear-gradient);}.cls-2{fill:#e6e6e6;}.cls-3{fill:url(#linear-gradient-2);}</style><linearGradient id="linear-gradient" y1="90.41" x2="362" y2="90.41" gradientUnits="userSpaceOnUse"><stop offset="0" stop-color="#333"/><stop offset="0.5" stop-color="#333"/><stop offset="0.5" stop-color="#4d4d4d"/><stop offset="1" stop-color="#4d4d4d"/></linearGradient><linearGradient id="linear-gradient-2" x1="168" y1="158.58" x2="193.85" y2="158.58" gradientUnits="userSpaceOnUse"><stop offset="0" stop-color="#d46c92"/><stop offset="0.5" stop-color="#d4145a"/><stop offset="0.5" stop-color="#ed1c24"/><stop offset="1" stop-color="#e61b23"/></linearGradient></defs><g id="Layer_2" data-name="Layer 2"><g id="Layer_1-2" data-name="Layer 1"><path class="cls-1" d="M325.82,156.89a8.5,8.5,0,1,1-3.76-16.58l33.46-7.61a180.06,180.06,0,0,0-27.84-57.94L301,96a8.5,8.5,0,1,1-10.59-13.3l26.66-21.21a181.75,181.75,0,0,0-50.16-40L252.23,51.9a8.51,8.51,0,0,1-11.35,4h0a8.5,8.5,0,0,1-4-11.35L251.6,14.1A180.14,180.14,0,0,0,189,0V33.31a8.5,8.5,0,0,1-17,0V0a179.75,179.75,0,0,0-62.16,14.31L124.12,44a8.5,8.5,0,0,1-15.32,7.38L94.54,21.76A181.68,181.68,0,0,0,44.89,61.52L70.31,81.8A8.5,8.5,0,0,1,59.7,95.09L34.29,74.81A180.3,180.3,0,0,0,6.67,132l31.54,7.21a8.49,8.49,0,0,1,6.39,10.18h0a8.5,8.5,0,0,1-10.18,6.39L2.87,148.55A182.41,182.41,0,0,0,0,180.81H108.88a73.5,73.5,0,1,1,143.24,0H362a182,182,0,0,0-2.74-31.53Z"/><ellipse class="cls-2" cx="180.5" cy="155.41" rx="26.5" ry="27.41"/><rect class="cls-2" x="174" y="62.23" width="13" height="90.17" rx="6.5"/><path class="cls-3" d="M181,172.06a21.83,21.83,0,0,1-11.71-13.18c-1.64-5.11-2.3-10.71,1.65-12.86a6.3,6.3,0,0,1,5.94-.33c2.25,1.13,4.12,4.12,4.12,4.12h-.14s1.87-3,4.12-4.12a6.28,6.28,0,0,1,5.93.33c4,2.15,3.3,7.75,1.65,12.86a21.86,21.86,0,0,1-11.7,13.18"/></g></g></svg>